<svg xmlns="http://www.w3.org/2000/svg" viewBox="0 0 100 100" width="100%" height="100%">
  <!-- Outer Rounded Frame with Bright Green -->
  <rect 
    x="12" 
    y="12" 
    width="76" 
    height="76" 
    rx="6" 
    fill="none" 
    stroke="#2de080" 
    stroke-width="4" 
  />

  <!-- Row 1 (y = 26) -->
  <rect x="36" y="26" width="8" height="8" rx="1.5" fill="#2de080" />
  <rect x="46" y="26" width="8" height="8" rx="1.5" fill="#2de080" />
  <rect x="56" y="26" width="8" height="8" rx="1.5" fill="#2de080" />

  <!-- Row 2 (y = 36) -->
  <rect x="26" y="36" width="8" height="8" rx="1.5" fill="#2de080" />
  <rect x="36" y="36" width="8" height="8" rx="1.5" fill="#2de080" />
  <rect x="46" y="36" width="8" height="8" rx="1.5" fill="#2de080" />
  <rect x="56" y="36" width="8" height="8" rx="1.5" fill="#2de080" />
  <rect x="66" y="36" width="8" height="8" rx="1.5" fill="#2de080" />

  <!-- Row 3 (y = 46) - Eyes Row -->
  <rect x="26" y="46" width="8" height="8" rx="1.5" fill="#2de080" />
  <rect x="46" y="46" width="8" height="8" rx="1.5" fill="#2de080" />
  <rect x="66" y="46" width="8" height="8" rx="1.5" fill="#2de080" />

  <!-- Row 4 (y = 56) -->
  <rect x="26" y="56" width="8" height="8" rx="1.5" fill="#2de080" />
  <rect x="36" y="56" width="8" height="8" rx="1.5" fill="#2de080" />
  <rect x="46" y="56" width="8" height="8" rx="1.5" fill="#2de080" />
  <rect x="56" y="56" width="8" height="8" rx="1.5" fill="#2de080" />
  <rect x="66" y="56" width="8" height="8" rx="1.5" fill="#2de080" />

  <!-- Row 5 (y = 66) -->
  <rect x="36" y="66" width="8" height="8" rx="1.5" fill="#2de080" />
  <rect x="46" y="66" width="8" height="8" rx="1.5" fill="#2de080" />
  <rect x="56" y="66" width="8" height="8" rx="1.5" fill="#2de080" />
</svg>
